<mxfile host="app.diagrams.net" modified="2023-09-14T12:43:56.680Z" agent="Mozilla/5.0 (Windows NT 10.0; Win64; x64) AppleWebKit/537.36 (KHTML, like Gecko) Chrome/115.0.0.0 Safari/537.36 OPR/101.0.0.0" version="21.7.5" etag="T4DJ8-deZ4FTxTyrBXd8" type="device">
  <diagram id="Ca7ZaiZ0j9MslCLJId1G" name="Seite-1">
    <mxGraphModel dx="1180" dy="1176" grid="1" gridSize="10" guides="1" tooltips="1" connect="1" arrows="1" fold="1" page="0" pageScale="1" pageWidth="827" pageHeight="1169" background="none" math="0" shadow="0">
      <root>
        <mxCell id="0" />
        <mxCell id="1" parent="0" />
        <mxCell id="node0" value="&lt;p style=&quot;margin:0px;margin-top:4px;text-align:center;&quot;&gt;&lt;b&gt;Heizung&lt;/b&gt;&lt;/p&gt;&lt;hr size=&quot;1&quot;/&gt;&lt;p style=&quot;margin:0 0 0 4px;line-height:1.6;&quot;&gt;# heizungsname: String&lt;br/&gt;# kWh: int&lt;/p&gt;&lt;hr size=&quot;1&quot;/&gt;&lt;p style=&quot;margin:0 0 0 4px;line-height:1.6;&quot;&gt;+ setHeizungsname(String): void&lt;br/&gt;+ getkWh(): int&lt;br/&gt;+ getHeizungsname(): String&lt;br/&gt;+ checkheizungsname(): void&lt;br/&gt;+ checkkWh(): void&lt;br/&gt;+ setkWh(int): void&lt;br/&gt;+ toString(): String&lt;/p&gt;" style="verticalAlign=top;align=left;overflow=fill;fontSize=14;fontFamily=Helvetica;html=1;rounded=0;shadow=0;comic=0;labelBackgroundColor=none;strokeWidth=1;" parent="1" vertex="1">
          <mxGeometry x="520" y="49" width="210" height="231" as="geometry" />
        </mxCell>
        <mxCell id="node5" value="&lt;p style=&quot;margin:0px;margin-top:4px;text-align:center;&quot;&gt;&lt;b&gt;Holzheizung&lt;/b&gt;&lt;/p&gt;&lt;hr size=&quot;1&quot;/&gt;&lt;p style=&quot;margin:0 0 0 4px;line-height:1.6;&quot;&gt;# holzname: String&lt;br/&gt;# ster: double&lt;/p&gt;&lt;hr size=&quot;1&quot;/&gt;&lt;p style=&quot;margin:0 0 0 4px;line-height:1.6;&quot;&gt;+ checkholzname(): void&lt;br/&gt;+ toString(): String&lt;br/&gt;+ getHolzname(): String&lt;br/&gt;+ getKg(): double&lt;br/&gt;+ getM3(): double&lt;br/&gt;+ setHolzname(String): void&lt;br/&gt;+ getSter(): double&lt;br/&gt;+ dichte(): int&lt;/p&gt;" style="verticalAlign=top;align=left;overflow=fill;fontSize=14;fontFamily=Helvetica;html=1;rounded=0;shadow=0;comic=0;labelBackgroundColor=none;strokeWidth=1;" parent="1" vertex="1">
          <mxGeometry x="110" width="186" height="253" as="geometry" />
        </mxCell>
        <mxCell id="node1" value="&lt;p style=&quot;margin:0px;margin-top:4px;text-align:center;&quot;&gt;&lt;b&gt;Pelletheizung&lt;/b&gt;&lt;/p&gt;&lt;hr size=&quot;1&quot;/&gt;&lt;p style=&quot;margin:0 0 0 4px;line-height:1.6;&quot;&gt;+ getKg(): double&lt;br/&gt;+ toString(): String&lt;br/&gt;+ getM3(): double&lt;/p&gt;" style="verticalAlign=top;align=left;overflow=fill;fontSize=14;fontFamily=Helvetica;html=1;rounded=0;shadow=0;comic=0;labelBackgroundColor=none;strokeWidth=1;" parent="1" vertex="1">
          <mxGeometry x="316" y="-10" width="138" height="106" as="geometry" />
        </mxCell>
        <mxCell id="node2" value="&lt;p style=&quot;margin:0px;margin-top:4px;text-align:center;&quot;&gt;&lt;b&gt;Schnitzelheizung&lt;/b&gt;&lt;/p&gt;&lt;hr size=&quot;1&quot;/&gt;&lt;p style=&quot;margin:0 0 0 4px;line-height:1.6;&quot;&gt;# holzname: String&lt;/p&gt;&lt;hr size=&quot;1&quot;/&gt;&lt;p style=&quot;margin:0 0 0 4px;line-height:1.6;&quot;&gt;+ getKg(): double&lt;br/&gt;+ toString(): String&lt;br/&gt;+ checkholzname(): void&lt;br/&gt;+ getM3(): double&lt;br/&gt;+ dichte(): int&lt;/p&gt;" style="verticalAlign=top;align=left;overflow=fill;fontSize=14;fontFamily=Helvetica;html=1;rounded=0;shadow=0;comic=0;labelBackgroundColor=none;strokeWidth=1;" parent="1" vertex="1">
          <mxGeometry x="250" y="270" width="166" height="165" as="geometry" />
        </mxCell>
        <mxCell id="_v0IUuoBHD2_yp2PfBGK-2" value="" style="edgeStyle=entityRelationEdgeStyle;fontSize=12;html=1;endArrow=ERmandOne;startArrow=ERzeroToMany;rounded=0;endFill=0;startFill=0;" edge="1" parent="1" source="node5" target="node0">
          <mxGeometry width="100" height="100" relative="1" as="geometry">
            <mxPoint x="68" y="94.5" as="sourcePoint" />
            <mxPoint x="338" y="60" as="targetPoint" />
          </mxGeometry>
        </mxCell>
        <mxCell id="_v0IUuoBHD2_yp2PfBGK-3" value="" style="edgeStyle=entityRelationEdgeStyle;fontSize=12;html=1;endArrow=ERmandOne;startArrow=ERzeroToMany;rounded=0;endFill=0;startFill=0;entryX=0;entryY=0.5;entryDx=0;entryDy=0;" edge="1" parent="1" source="node2" target="node0">
          <mxGeometry width="100" height="100" relative="1" as="geometry">
            <mxPoint x="306" y="145" as="sourcePoint" />
            <mxPoint x="330" y="140" as="targetPoint" />
            <Array as="points">
              <mxPoint x="350" y="290" />
              <mxPoint x="330" y="240" />
            </Array>
          </mxGeometry>
        </mxCell>
        <mxCell id="_v0IUuoBHD2_yp2PfBGK-4" value="" style="edgeStyle=entityRelationEdgeStyle;fontSize=12;html=1;endArrow=ERmandOne;startArrow=ERzeroToMany;rounded=0;endFill=0;startFill=0;exitX=1;exitY=0.25;exitDx=0;exitDy=0;" edge="1" parent="1" source="node1" target="node0">
          <mxGeometry width="100" height="100" relative="1" as="geometry">
            <mxPoint x="316" y="155" as="sourcePoint" />
            <mxPoint x="360" y="166" as="targetPoint" />
          </mxGeometry>
        </mxCell>
      </root>
    </mxGraphModel>
  </diagram>
</mxfile>
